HIERARCHY
ROOT Hips
{
	OFFSET -14.64140 90.27770 -84.91600
	CHANNELS 6 Xposition Yposition Zposition Zrotation Xrotation Yrotation
	JOINT Spine
	{
		OFFSET 0.00000 13.20850 -1.60436
		CHANNELS 3 Zrotation Xrotation Yrotation
		JOINT Spine1
		{
			OFFSET 0.00000 8.61716 0.00000
			CHANNELS 3 Zrotation Xrotation Yrotation
			JOINT Spine2
			{
				OFFSET 0.00000 8.61717 0.00000
				CHANNELS 3 Zrotation Xrotation Yrotation
				JOINT Spine3
				{
					OFFSET 0.00000 8.61717 0.00000
					CHANNELS 3 Zrotation Xrotation Yrotation
					JOINT Neck
					{
						OFFSET 0.00000 11.07920 1.10792
						CHANNELS 3 Zrotation Xrotation Yrotation
						JOINT Neck1
						{
							OFFSET 0.00000 7.08032 0.00000
							CHANNELS 3 Zrotation Xrotation Yrotation
							JOINT Head
							{
								OFFSET 0.00000 7.08031 0.00000
								CHANNELS 3 Zrotation Xrotation Yrotation
								End site
								{
									OFFSET 0.00000 0.00000 0.00000
								}
							}
						}
					}
					JOINT RightShoulder
					{
						OFFSET -0.01000 7.91373 5.19711
						CHANNELS 3 Zrotation Xrotation Yrotation
						JOINT RightArm
						{
							OFFSET -18.41580 0.00000 0.00000
							CHANNELS 3 Zrotation Xrotation Yrotation
							JOINT RightForeArm
							{
								OFFSET -29.11090 0.00000 0.00000
								CHANNELS 3 Zrotation Xrotation Yrotation
								JOINT RightHand
								{
									OFFSET -24.65040 0.00000 0.00000
									CHANNELS 3 Zrotation Xrotation Yrotation
									JOINT RightHandThumb1
									{
										OFFSET -5.35114 -0.85590 3.97906
										CHANNELS 3 Zrotation Xrotation Yrotation
										JOINT RightHandThumb2
										{
											OFFSET -4.52789 0.00000 0.00000
											CHANNELS 3 Zrotation Xrotation Yrotation
											JOINT RightHandThumb3
											{
												OFFSET -2.46976 0.00000 0.00000
												CHANNELS 3 Zrotation Xrotation Yrotation
												End site
												{
													OFFSET 0.00000 0.00000 0.00000
												}
											}
										}
									}
									JOINT RightHandIndex1
									{
										OFFSET -14.26970 0.00000 2.88139
										CHANNELS 3 Zrotation Xrotation Yrotation
										JOINT RightHandIndex2
										{
											OFFSET -5.48836 0.00000 0.00000
											CHANNELS 3 Zrotation Xrotation Yrotation
											JOINT RightHandIndex3
											{
												OFFSET -3.01859 0.00000 0.00000
												CHANNELS 3 Zrotation Xrotation Yrotation
												End site
												{
													OFFSET 0.00000 0.00000 0.00000
												}
											}
										}
									}
									JOINT RightHandMiddle1
									{
										OFFSET -14.26970 0.00000 -0.09147
										CHANNELS 3 Zrotation Xrotation Yrotation
										JOINT RightHandMiddle2
										{
											OFFSET -6.17441 0.00000 0.00000
											CHANNELS 3 Zrotation Xrotation Yrotation
											JOINT RightHandMiddle3
											{
												OFFSET -3.56743 0.00000 0.00000
												CHANNELS 3 Zrotation Xrotation Yrotation
												End site
												{
													OFFSET 0.00000 0.00000 0.00000
												}
											}
										}
									}
									JOINT RightHandRing1
									{
										OFFSET -12.69180 0.00000 -3.06433
										CHANNELS 3 Zrotation Xrotation Yrotation
										JOINT RightHandRing2
										{
											OFFSET -5.62556 0.00000 0.00000
											CHANNELS 3 Zrotation Xrotation Yrotation
											JOINT RightHandRing3
											{
												OFFSET -3.56744 0.00000 0.00000
												CHANNELS 3 Zrotation Xrotation Yrotation
												End site
												{
													OFFSET 0.00000 0.00000 0.00000
												}
											}
										}
									}
									JOINT RightHandPinky1
									{
										OFFSET -11.11390 0.00000 -6.03719
										CHANNELS 3 Zrotation Xrotation Yrotation
										JOINT RightHandPinky2
										{
											OFFSET -4.52789 0.00000 0.00000
											CHANNELS 3 Zrotation Xrotation Yrotation
											JOINT RightHandPinky3
											{
												OFFSET -2.46976 0.00000 0.00000
												CHANNELS 3 Zrotation Xrotation Yrotation
												End site
												{
													OFFSET 0.00000 0.00000 0.00000
												}
											}
										}
									}
								}
							}
						}
					}
					JOINT LeftShoulder
					{
						OFFSET 0.01000 7.91373 5.19711
						CHANNELS 3 Zrotation Xrotation Yrotation
						JOINT LeftArm
						{
							OFFSET 18.41580 0.00000 0.00000
							CHANNELS 3 Zrotation Xrotation Yrotation
							JOINT LeftForeArm
							{
								OFFSET 29.11090 0.00000 0.00000
								CHANNELS 3 Zrotation Xrotation Yrotation
								JOINT LeftHand
								{
									OFFSET 24.65040 0.00000 0.00000
									CHANNELS 3 Zrotation Xrotation Yrotation
									JOINT LeftHandThumb1
									{
										OFFSET 5.35114 -0.85590 3.97906
										CHANNELS 3 Zrotation Xrotation Yrotation
										JOINT LeftHandThumb2
										{
											OFFSET 4.52789 0.00000 0.00000
											CHANNELS 3 Zrotation Xrotation Yrotation
											JOINT LeftHandThumb3
											{
												OFFSET 2.46977 0.00000 0.00000
												CHANNELS 3 Zrotation Xrotation Yrotation
												End site
												{
													OFFSET 0.00000 0.00000 0.00000
												}
											}
										}
									}
									JOINT LeftHandIndex1
									{
										OFFSET 14.26970 0.00000 2.88139
										CHANNELS 3 Zrotation Xrotation Yrotation
										JOINT LeftHandIndex2
										{
											OFFSET 5.48836 0.00000 0.00000
											CHANNELS 3 Zrotation Xrotation Yrotation
											JOINT LeftHandIndex3
											{
												OFFSET 3.01859 0.00000 0.00000
												CHANNELS 3 Zrotation Xrotation Yrotation
												End site
												{
													OFFSET 0.00000 0.00000 0.00000
												}
											}
										}
									}
									JOINT LeftHandMiddle1
									{
										OFFSET 14.26970 0.00000 -0.09147
										CHANNELS 3 Zrotation Xrotation Yrotation
										JOINT LeftHandMiddle2
										{
											OFFSET 6.17440 0.00000 0.00000
											CHANNELS 3 Zrotation Xrotation Yrotation
											JOINT LeftHandMiddle3
											{
												OFFSET 3.56744 0.00000 0.00000
												CHANNELS 3 Zrotation Xrotation Yrotation
												End site
												{
													OFFSET 0.00000 0.00000 0.00000
												}
											}
										}
									}
									JOINT LeftHandRing1
									{
										OFFSET 12.69180 0.00000 -3.06433
										CHANNELS 3 Zrotation Xrotation Yrotation
										JOINT LeftHandRing2
										{
											OFFSET 5.62556 0.00000 0.00000
											CHANNELS 3 Zrotation Xrotation Yrotation
											JOINT LeftHandRing3
											{
												OFFSET 3.56744 0.00000 0.00000
												CHANNELS 3 Zrotation Xrotation Yrotation
												End site
												{
													OFFSET 0.00000 0.00000 0.00000
												}
											}
										}
									}
									JOINT LeftHandPinky1
									{
										OFFSET 11.11390 0.00000 -6.03719
										CHANNELS 3 Zrotation Xrotation Yrotation
										JOINT LeftHandPinky2
										{
											OFFSET 4.52789 0.00000 0.00000
											CHANNELS 3 Zrotation Xrotation Yrotation
											JOINT LeftHandPinky3
											{
												OFFSET 2.46976 0.00000 0.00000
												CHANNELS 3 Zrotation Xrotation Yrotation
												End site
												{
													OFFSET 0.00000 0.00000 0.00000
												}
											}
										}
									}
								}
							}
						}
					}
					JOINT pCube4
					{
						OFFSET 0.00000 10.91090 1.10792
						CHANNELS 3 Zrotation Xrotation Yrotation
						End site
						{
							OFFSET 0.00000 0.00000 0.00000
						}
					}
				}
			}
		}
	}
	JOINT RightUpLeg
	{
		OFFSET -9.98441 0.00000 0.00000
		CHANNELS 3 Zrotation Xrotation Yrotation
		JOINT RightLeg
		{
			OFFSET 0.00000 -42.11790 0.00000
			CHANNELS 3 Zrotation Xrotation Yrotation
			JOINT RightFoot
			{
				OFFSET 0.00000 -45.00020 -0.00001
				CHANNELS 3 Zrotation Xrotation Yrotation
				JOINT RightForeFoot
				{
					OFFSET 0.00000 -3.74820 0.00000
					CHANNELS 3 Zrotation Xrotation Yrotation
					JOINT RightToeBase
					{
						OFFSET 0.00000 0.06325 14.43120
						CHANNELS 3 Zrotation Xrotation Yrotation
						End site
						{
							OFFSET 0.00000 0.00000 0.00000
						}
					}
				}
			}
		}
	}
	JOINT LeftUpLeg
	{
		OFFSET 9.98441 0.00000 0.00000
		CHANNELS 3 Zrotation Xrotation Yrotation
		JOINT LeftLeg
		{
			OFFSET 0.00000 -42.11800 0.00000
			CHANNELS 3 Zrotation Xrotation Yrotation
			JOINT LeftFoot
			{
				OFFSET 0.00000 -45.00070 0.00000
				CHANNELS 3 Zrotation Xrotation Yrotation
				JOINT LeftForeFoot
				{
					OFFSET 0.00000 -3.74824 0.00000
					CHANNELS 3 Zrotation Xrotation Yrotation
					JOINT LeftToeBase
					{
						OFFSET 0.00000 0.06325 14.43110
						CHANNELS 3 Zrotation Xrotation Yrotation
						End site
						{
							OFFSET 0.00000 0.00000 0.00000
						}
					}
				}
			}
		}
	}
}
MOTION
Frames: 4
Frame Time: 0.050000
0.00366876033800693 -0.012972234728728852 -0.029385905093392364 0.033803438115595344 -0.019882769382619545 0.046311266233472315 3.5238257801122814 4.540983518506375 -1.842778851591908 -0.8493264829766105 3.516328541079084 0.36005891081331154 -0.6646355352851666 -1.1983786192121464 -0.4503308985581034 -0.43834401281348345 -0.43348201921785195 -0.5367942617253846 -0.4467022748284947 12.555833738362749 -1.1298419014299577 0.3365451112538933 -0.40218204851857137 -2.501164128538278 0.6714846775384977 -16.57799087562051 -0.24229079256185387 -9.213037090048745 3.3027081258153648 -16.758965073769176 72.99695572695461 -6.580190947882405 1.7167351306071836 1.2859255355010666 0.4702651260540019 67.11167801006786 16.182735843949683 -0.39120795366220373 -1.9493893278891192 4.5400294271609045 -0.09832718806598191 -1.639583197028377 -0.01983872507649487 0.02346569011407936 -56.27671208190148 -0.03452485041883371 -0.011726897517617458 -56.22846167430523 -38.761168837332136 -0.004320474601372296 -0.010707457485233055 0.001682635379298717 -0.042118050729230125 -0.009188110347179403 0.001658307357379523 -0.005565394151559892 0.037446968574242706 -36.72309725005106 -0.010166397626263892 0.016470057152039527 -0.001159860692669157 -0.047656098884517765 -0.031190645373798113 0.033516439302841074 0.02757334603296799 0.030166542394697897 -19.777871561162424 0.0143523053736741 -0.04169522409774267 -0.010770361324919925 -0.013783730126234713 -0.030385111867679816 -0.034272999547161793 -0.026820203423302224 0.035311701468809964 24.026507043430392 -0.03781250775395513 0.03682655584805253 28.868194051601645 -0.027928451182525422 0.014540154228408488 28.890993195999016 0.01855921099814361 0.04458010325700328 11.578903687240224 2.786293498423551 14.634337355691468 -62.87248852636579 2.0469730902449665 -23.426512445115222 -13.0196770918711 -4.329794479937609 -85.495429538347 -12.168315413223734 -3.1827811972035427 -0.9323623335329045 -0.45698633277236467 0.08565155452256121 -8.125296196194919 0.0015162780420341763 0.008297795745219945 44.543106929587765 0.025813988832975674 -0.028457550859439903 44.56645415964769 12.423998333365018 0.023067611002241178 0.005107208965768521 -0.00826994897004348 0.04786162496932173 -0.04819245028296921 -0.0035813611962510266 -0.018023146276557524 0.045801662634470566 11.131258115454994 -0.02452728466023463 0.033685693799084294 0.004981334407298608 -0.027958372213394297 0.04753890174332674 -0.007466144589019798 -0.0258788464280804 -0.037860515109299955 4.725354674108821 -0.011478614225054485 0.013102260821336429 -0.0064118408837206585 -0.03627809030627718 0.026860081472860106 0.033178281203557584 -0.014901306609357462 -0.022878008105785316 -5.638165123598312 -0.026355841381339312 0.028141820412347036 -6.699938900642511 0.04455361155179064 0.008844314622240754 -6.704224106990986 0.04889813029264031 0.04292066094713952 0.017115341304073484 -0.017638636047431093 -0.011724757076327572 8.031655745194728 3.4509950073486304 -19.215077086372606 -0.013532816163041935 10.438508289019993 -0.018591057155898514 -5.650903751698014 -15.626107294049525 3.1801978005546085 -0.02512262598767229 -0.013911668463988785 0.03928478018021595 0.03164464226684812 4.658673847676767 -0.032056068078362775 12.483492050800162 -8.209472749134594 6.898105849600613 0.021763370731397856 46.36712727410345 -0.04681590885133912 -4.359857609356232 -14.764126493303667 -3.805188379741854 0.022100499538961708 -0.021844850545879327 -0.02419995069337873 0.001552785622931741 -10.71153735867661 0.0036991196663113046 
-0.00353917446682305 -0.02171288341043048 -0.040110753801596656 -0.015686719308938966 0.03255924368495857 0.03592708263530364 3.5391870553315874 4.424860267499954 -1.8685177906447328 -0.847653302298673 3.5212029526209 0.34154415907144803 -0.6319826600337531 -1.1468090729073321 -0.5222380141055405 -0.3920922512768711 -0.42697518094329334 -0.5460461157140193 -0.49427357420816015 12.607874056442098 -0.9693604143198565 0.29386985385846054 -0.4327112406924093 -2.105633723421183 0.6861611476622098 -16.636287751655495 -0.2389441459722056 -9.411810535886953 3.3457236056223727 -16.89315783613939 73.29227806690781 -6.622696409075868 1.1256415789687642 1.3976938758247575 -0.2665231058533315 67.67688171732424 16.113622650935717 -0.3467055359527206 -1.952873745283681 4.522652702910271 -0.1273189610111222 -1.6190252885382972 0.018409068292980755 0.0403216105857268 -56.19520933416236 -0.045543234333431826 -0.006458123530939528 -56.18884924921801 -38.81534327664849 -0.008888536234303782 -0.012812421613524097 0.026367130386244747 -0.047102185189005365 -0.023718070430839545 0.03096297538646801 0.04842534544293873 -0.04485457976223666 -36.665343710869486 0.004487993176304878 -0.04378447851251969 -0.037358737623108526 -0.010248752475480283 0.02685791500010984 -0.029932356009898152 0.011530366634950178 -0.0414545901993123 -19.756791237873763 -0.015455965993561952 -0.001151166601492563 0.015119202960147553 0.023463675987987907 0.03491357646827759 0.017456434406462152 0.0002235478716925749 0.048859744888311164 24.046319586181625 -0.006184991696499498 0.025964871295572876 28.853940551546614 -0.047100097951289936 -0.017668794820741292 28.857646618668404 0.01627921500420676 0.026086668279908264 11.910882657313268 2.8550626588335484 14.790089745814232 -62.46564190085457 1.5891774026488146 -24.227299783909974 -12.653659373902427 -5.101386002694318 -86.35799953768539 -11.976522990942653 -3.3952883851834583 -0.979634418401453 -0.5154501855788105 0.07100461736035929 -8.1134204494376 -0.046358880007529794 -0.04593939407725683 44.550813851124786 0.016650509407375377 -0.025554320805788285 44.58016219298604 12.497701935941596 -0.04499097566747919 0.0422520387765846 -0.04493107665712082 0.022111738902703352 0.045341714439109275 -0.011491147861871985 -0.04849544799675533 0.03134106890856936 11.128247797680682 0.044202232511174326 -0.03385653597426211 -0.005221208541655874 0.02429446533429995 0.008789148072593428 0.04938076463323729 0.016862567537264162 -0.005054393943208029 4.777769874209313 -0.03790032862987613 -0.02273593331664445 0.04247476132089718 -0.04057381681467537 -0.0017089032941972396 -0.008485165086767143 0.03166788300647395 -0.0028077505627279314 -5.6230517036768575 0.012506736462727723 -0.02115912845642619 -6.696781534440432 0.048314640270033196 -0.00506219588809379 -6.72095668395775 0.039821080921108885 -0.04711364817361795 -0.004356702539375442 0.007399040263665298 0.00639182892937526 8.08435116422786 3.491525430467466 -19.2458355084681 -0.02879918671801567 10.41712250573372 0.021777699460537113 -5.641642648216945 -15.674675956073585 3.1802776698408124 0.040304984867443085 0.03873474962504513 0.008125380911468352 0.021379379053696974 4.6579409898117605 -0.040574329694750236 12.431403947270345 -8.280335063923602 6.8760822494171006 0.005235961083442924 46.37954371432122 0.04700750067983547 -4.27921534854683 -14.771219559857586 -3.83202476968687 0.01603551093715764 0.00676995647484944 0.04846056149424337 -0.006343761915547447 -10.69878821447958 0.036429308963401026 
-0.022225802303249918 0.033363953795982025 0.03704759371479971 -0.045748459362673105 -0.021449307557715874 -0.00880940657519966 3.5478556090316133 4.487765942055842 -1.844852154569202 -0.7704457115850772 3.5175709219903104 0.41116444680565883 -0.6066690987953189 -1.163316145941483 -0.6699222182365733 -0.4607277456780283 -0.4756567643956531 -0.5791368727120102 -0.5279928553285373 12.666424269894021 -0.8688780900553634 0.3663251028097654 -0.4173832269758914 -1.72769541324185 0.6667657748006097 -16.713799410028066 -0.1745129342467175 -9.503072467165461 3.329056571511597 -17.047367912117853 73.58656019176783 -6.512715241113943 0.1226366510728997 1.0295415997617123 -1.029467127715302 68.0703848549644 16.377417672003745 -0.4131593980025178 -1.974227350431191 4.577973286481874 -0.0784278309849439 -1.5526673954846295 0.03515301653007188 0.002926275434496406 -56.223312220893334 0.05000814072573743 -0.019837965798933856 -56.20214843448539 -38.80221453579027 -0.024879005450032823 0.031106425915377968 0.00023099555936593742 -0.04042560981356546 -0.0006382737749312253 0.0407120632323175 7.643000342761881e-05 0.003279945463410508 -36.68589863663772 0.02912860583477276 0.029469290134522583 0.011918277223988458 -0.016741337476074952 0.039170600105353746 0.012029081147336858 0.02832942345877779 -0.049717674122454994 -19.748269112678866 -0.01123981465499444 -0.04373880651469585 0.020658833072747157 -0.03681061341619058 0.005778596260223792 -0.03235584263784423 0.029964752593992408 -0.0003453623435351311 24.064052026264847 0.03163528723905574 -0.03927359733324633 28.842588434654317 -0.005030639306160356 -0.011748347862666007 28.824725966183507 -0.030417441839532412 0.008993197399964632 12.158900840365067 2.8299443081483875 14.855714615359153 -61.99110265865235 1.3046829775558533 -24.721663220261703 -12.796087168981956 -5.724130537946702 -87.37839241554273 -12.031421025667484 -3.572219614297691 -0.9167502897329579 -0.4451136675184373 0.045020855305597296 -8.144494927480073 -0.003981661019641997 0.014119638523246904 44.53690660318565 -0.014235553099336244 -0.011878114394929064 44.5827848378758 12.479259695857223 -0.04770737090221932 0.015829681809064522 -0.04239073247405145 -0.04576802065231115 0.03716566442647478 -0.0217053883415734 -0.0003681949730571422 -0.026570428472047557 11.124248335993327 0.009424326189275682 0.018676580134859365 0.029404779445258458 -0.02275893580584203 0.033411119994892616 -0.020892129817950814 0.02401267547201219 -0.01966305703487732 4.756240021159696 0.015013979669655555 0.002357916458981544 0.04668362562020921 -0.04108183994134331 -0.006450242109087313 -0.00025529040470184694 0.03639769402231626 0.024483893746363904 -5.583144041607239 -0.01065032778131758 0.04488426862922159 -6.727911492229078 0.03425091016524003 0.000814454140190791 -6.721766898167621 0.009579889698310789 0.04088840470519546 0.017966036353618167 0.010385475181782039 -0.005492872114091865 8.047797171004301 3.515989583693703 -19.18646734596525 -0.008662202545454103 10.358456039620457 0.025696312654732115 -5.659762805631285 -15.68637514290395 3.1526414353846106 -0.00868670554811316 0.04533744412561435 -0.015511398534028976 0.023421916502903217 4.742132518861397 -0.01700945639351998 12.492461212442164 -8.191445625941796 6.872974043419127 -0.007993869961358096 46.401834328012306 -0.02441502619971763 -4.373528767103723 -14.757684596564328 -3.8648367025034993 0.031303044396278824 -0.023390452113404257 -0.0032630117233699947 -0.04431478033852605 -10.776817135479025 0.03517561943123529 
0.04026244199000116 -0.04396649218349649 -0.017258211416268442 0.020478517481302572 -0.015916581003944323 0.022606064286520806 3.37701020129574 4.599432944778016 -1.7845928658550751 -0.767807463267573 3.4789661446493216 0.3775505828269108 -0.6573621168445855 -1.1824857504342334 -0.795038726566213 -0.4034024678994873 -0.45878965527830695 -0.582288587265377 -0.5111002107364895 12.483160514764403 -0.9123605256550834 0.34421889279790036 -0.44415255154395383 -1.847108788091468 0.6297326213548136 -16.741480410826583 -0.20954542998449105 -9.029985463970895 3.2681468880899915 -16.948843843602344 73.62782155837108 -6.7467462797848174 -0.8641868416368694 0.4255317699809901 -1.2877514774200054 68.2199666268879 17.410488869225436 -0.3998318812120392 -2.15325904558736 4.47927822534079 -0.1492682491599493 -1.6270779673531504 0.04091441027359719 -0.028437131205635388 -56.26449834143335 -0.04560070667816699 -0.0123455721555615 -56.195057572142396 -38.72273839646406 0.03508969496803712 0.04456435565231623 -0.021453788404143637 0.043279165889622155 -0.010129945534431922 0.014238609422738852 -0.018421642077591727 0.029790372191480004 -36.70727502897149 0.03372242373624136 0.04431400304140331 0.029680526369619226 0.03416049969805353 0.04120501700598161 0.032203941102270234 -0.026670242547631142 0.004063427467472795 -19.762477664479423 -0.0001758003870043175 -0.03310854829338232 0.015883940217018725 -0.029884287415977033 0.017719815451849592 0.015508145257953585 0.006969468374955572 0.0031735907415455637 24.076272663514974 -0.04314925012070268 0.008068757833989762 28.904169783257537 -0.004071937248378393 -0.03601428016456128 28.892916154117597 0.030487984955744042 0.0385593892696677 11.954433748020778 2.8214662007074867 14.726133344066593 -61.32267563274439 0.9712818984855374 -25.04526933857421 -13.309342593322379 -6.122172121657476 -88.70832404670708 -12.42921619308129 -3.698762544034374 -0.9940201563985934 -0.468912449635663 0.11045075827849696 -8.144597037084898 0.03167398973061941 0.04742461342337299 44.58435964975987 0.020901029865110332 -0.004821135402444684 44.583193183891574 12.504273234766188 -0.03906632583123333 -0.03803672861766354 0.003621735253245361 -0.006170498938171604 0.028870783811493116 0.0008623189680871522 0.0034224436613778117 -0.0257145698592638 11.11935950767637 -0.013212921845212094 -0.036897605966445854 -0.013017142357342044 -0.044725560313071136 0.040062595625348016 0.016796742403114472 0.04509880180196268 -0.010274474297118587 4.7621349420618575 -0.005877740955129689 0.013519002040776384 0.025118486014983458 0.006246072806434682 -0.013484316411110751 0.024373673150735645 0.027597095636061744 0.015689284243928056 -5.562148657811903 0.03724465611688041 -0.029538841774164326 -6.70769699988422 -0.03474285713664615 0.011856426990370433 -6.768473468411882 -0.042756079472780005 0.029704131617815713 -0.02652302718440245 -0.01496223833165172 0.04668355361787964 8.040203512909821 3.4998617716913767 -19.1698847312165 0.02005369079549905 10.441079954800376 -0.03075891141117996 -5.594547784039632 -15.633786542607117 3.1456172010215115 -0.027507578446984017 0.021502813119204392 0.018627962111380566 0.042099561855441586 4.702821203855299 -0.00039594558817228413 12.439628850105786 -8.230334199143712 6.904091195937638 0.010023592302534618 46.340486071266376 0.019947552113817216 -4.28872237125858 -14.795234277233286 -3.861602899797475 -0.021158625800319627 0.01818810001318141 -0.04545830795237498 -0.009348554632952841 -10.732214214445873 -0.030028218981036456 
